<?xml version="1.0" encoding="UTF-8" standalone="no"?>
<!DOCTYPE svg PUBLIC "-//W3C//DTD SVG 1.1//EN" "http://www.w3.org/Graphics/SVG/1.1/DTD/svg11.dtd">
<svg width="100%" height="100%" viewBox="0 0 350 300" version="1.1" xmlns="http://www.w3.org/2000/svg" xmlns:xlink="http://www.w3.org/1999/xlink" xml:space="preserve" xmlns:serif="http://www.serif.com/" style="fill-rule:evenodd;clip-rule:evenodd;stroke-linejoin:round;stroke-miterlimit:2;">
    <g transform="matrix(0.916185,0,0,0.842105,-94.858382,-28.210526)">
        <path d="M121,119L294,46.563L467,119L467,342.25C467,355.358 457.218,366 445.17,366L142.83,366C130.782,366 121,355.358 121,342.25L121,119Z" style="fill:rgb(116,129,129);"/>
    </g>
    <g transform="matrix(0.783237,0,0,0.643725,-54.771676,-32.263844)">
        <path d="M467,134.535L467,350.465C467,359.039 461.279,366 454.232,366L133.768,366C126.721,366 121,359.039 121,350.465L121,134.535C121,125.961 126.721,119 133.768,119L454.232,119C461.279,119 467,125.961 467,134.535Z" style="fill:white;"/>
    </g>
    <g transform="matrix(0.916185,-0,-0,0.842105,-94.858382,-28.210526)">
        <path d="M467,173.625L467,342.25C467,355.358 459.888,366 451.128,366L136.872,366C128.112,366 121,355.358 121,342.25L121,173.625L372.587,231.599L467,173.625Z" style="fill:rgb(187,187,187);"/>
    </g>
    <g transform="matrix(0.989744,0,0,1,-63.646154,2.430758)">
        <path d="M327,117C327,120.863 323.831,124 319.927,124L139.073,124C135.169,124 132,120.863 132,117C132,113.137 135.169,110 139.073,110L319.927,110C323.831,110 327,113.137 327,117Z" style="fill:rgb(220,220,220);"/>
    </g>
    <g transform="matrix(1.153846,0,0,1,-86.307692,-34.228981)">
        <path d="M327,117C327,120.863 324.282,124 320.933,124L138.067,124C134.718,124 132,120.863 132,117C132,113.137 134.718,110 138.067,110L320.933,110C324.282,110 327,113.137 327,117Z" style="fill:rgb(220,220,220);"/>
    </g>
</svg>
