<?xml version="1.0" encoding="UTF-8" standalone="no"?><!DOCTYPE svg PUBLIC "-//W3C//DTD SVG 1.1//EN" "http://www.w3.org/Graphics/SVG/1.1/DTD/svg11.dtd"><svg width="100%" height="100%" viewBox="0 0 480 480" version="1.1" xmlns="http://www.w3.org/2000/svg" xmlns:xlink="http://www.w3.org/1999/xlink" xml:space="preserve" xmlns:serif="http://www.serif.com/" style="fill-rule:evenodd;clip-rule:evenodd;stroke-linecap:round;stroke-linejoin:round;stroke-miterlimit:1.5;"><g><path d="M458.541,180.47l0,208.967c0,41.704 -33.859,75.563 -75.563,75.563l-292.415,0c-41.704,0 -75.563,-33.859 -75.563,-75.563l0,-292.415c0,-41.704 33.859,-75.563 75.563,-75.563l208.967,0" style="fill:none;stroke:#000;stroke-width:16.67px;"/><path d="M214.738,341.603c-31.707,24.771 -114.512,38.171 -114.512,38.171c0,0 13.4,-82.805 38.171,-114.512l234.462,-234.462c21.067,-21.067 55.274,-21.067 76.341,0c21.067,21.067 21.067,55.274 0,76.341l-234.462,234.462Z" style="fill:none;stroke:#000;stroke-width:16.67px;"/></g></svg>