<?xml version="1.0" encoding="UTF-8" standalone="no"?><!DOCTYPE svg PUBLIC "-//W3C//DTD SVG 1.1//EN" "http://www.w3.org/Graphics/SVG/1.1/DTD/svg11.dtd"><svg width="100%" height="100%" viewBox="0 0 480 480" version="1.1" xmlns="http://www.w3.org/2000/svg" xmlns:xlink="http://www.w3.org/1999/xlink" xml:space="preserve" xmlns:serif="http://www.serif.com/" style="fill-rule:evenodd;clip-rule:evenodd;stroke-linecap:round;stroke-linejoin:round;stroke-miterlimit:1.5;"><g><path d="M450.26,240.034l-0,142.797c0,39.861 -32.576,72.222 -72.7,72.222l-281.335,0c-40.124,0 -72.7,-32.362 -72.7,-72.222l0,-279.488c0,-39.861 32.576,-72.222 72.7,-72.222l144.526,0" style="fill:none;stroke:#fff;stroke-width:33.33px;"/><path d="M215.695,337.112c-30.505,23.675 -110.173,36.483 -110.173,36.483c0,0 12.892,-79.145 36.724,-109.45l225.577,-224.097c20.269,-20.136 53.18,-20.136 73.449,0c20.269,20.136 20.269,52.831 0,72.967l-225.577,224.097Z" style="fill:none;stroke:#fff;stroke-width:33.33px;"/></g></svg>