<?xml version="1.0" encoding="UTF-8" standalone="no"?><!DOCTYPE svg PUBLIC "-//W3C//DTD SVG 1.1//EN" "http://www.w3.org/Graphics/SVG/1.1/DTD/svg11.dtd"><svg width="100%" height="100%" viewBox="0 0 750 750" version="1.1" xmlns="http://www.w3.org/2000/svg" xmlns:xlink="http://www.w3.org/1999/xlink" xml:space="preserve" xmlns:serif="http://www.serif.com/" style="fill-rule:evenodd;clip-rule:evenodd;stroke-linejoin:round;stroke-miterlimit:2;"><rect id="logo" x="0" y="0" width="750" height="750" style="fill:none;"/><g><circle cx="691.922" cy="381.062" r="34.377"/><path d="M719.021,492.97c0,8.476 -5.558,23.582 -5.558,23.582c-54.993,128.051 -182.287,217.826 -330.383,217.826c-198.346,0 -359.378,-161.032 -359.378,-359.378c-0,-198.346 161.032,-359.378 359.378,-359.378c131.439,0 242.757,54.366 306.454,171.933c3.736,6.896 4.598,10.515 4.598,13.95c0,13.084 -10.623,23.707 -23.707,23.707c-7.845,0 -15.485,-3.798 -22.455,-16.09c-45.117,-99.07 -146.801,-168.22 -264.89,-168.22c-159.921,0 -289.756,126.819 -289.756,283.024c0,156.205 129.835,283.024 289.756,283.024c104.892,0 196.841,-54.558 247.701,-136.182c8.923,-14.249 24.102,-24.944 41.959,-24.944c25.543,0 46.281,21.125 46.281,47.144Z"/></g></svg>